<?xml version="1.0" standalone="no"?>
<!DOCTYPE svg PUBLIC "-//W3C//DTD SVG 20010904//EN"
 "http://www.w3.org/TR/2001/REC-SVG-20010904/DTD/svg10.dtd">
<svg version="1.0" xmlns="http://www.w3.org/2000/svg"
 width="458.000000pt" height="454.000000pt" viewBox="0 0 458.000000 454.000000"
 preserveAspectRatio="xMidYMid meet">
<metadata>
Created by potrace 1.13, written by Peter Selinger 2001-2015
</metadata>
<g transform="translate(0.000000,454.000000) scale(0.100000,-0.100000)"
fill="#000000" stroke="none">
<path d="M2110 4348 c-465 -43 -919 -253 -1253 -577 -184 -178 -314 -357 -427
-586 -109 -221 -176 -453 -201 -694 -15 -143 -6 -443 16 -566 111 -621 462
-1128 1005 -1455 132 -80 213 -117 367 -169 284 -97 551 -133 831 -112 514 38
969 247 1333 610 315 315 507 691 586 1146 27 156 25 511 -4 672 -82 455 -291
848 -614 1158 -287 276 -628 455 -1024 539 -203 42 -408 54 -615 34z m788
-1188 c33 -22 97 -73 143 -113 89 -78 438 -433 489 -497 l29 -37 -467 -143
c-257 -79 -475 -145 -485 -148 -21 -5 -23 -38 18 343 34 316 81 533 130 609
26 39 70 35 143 -14z m-372 -362 c-3 -29 -15 -120 -26 -203 -28 -208 -37 -385
-21 -395 8 -4 -12 -14 -51 -24 -35 -9 -139 -36 -233 -61 -160 -42 -216 -53
-202 -39 3 4 -7 33 -23 65 -78 154 -140 341 -140 426 0 81 4 85 162 135 216
70 489 146 527 148 11 0 12 -11 7 -52z m-777 -187 c-19 -15 -24 -30 -27 -89
-9 -152 42 -371 100 -438 28 -31 36 -35 70 -32 21 2 38 1 38 -2 0 -3 -19 -18
-42 -35 -50 -37 -112 -117 -128 -167 -8 -28 -9 -47 -1 -71 30 -89 155 -134
191 -68 13 26 4 45 -45 94 -43 43 -44 66 -5 111 62 71 153 70 207 -1 25 -32
28 -47 32 -121 6 -144 -58 -298 -148 -359 -47 -32 -144 -31 -221 0 -203 84
-430 341 -522 591 -65 177 -14 313 167 441 66 47 178 106 270 141 74 28 95 30
64 5z"/>
</g>
</svg>
